<mxfile host="app.diagrams.net" agent="Mozilla/5.0 (Windows NT 10.0; Win64; x64) AppleWebKit/537.36 (KHTML, like Gecko) Chrome/135.0.0.0 Safari/537.36" version="26.2.3">
  <diagram name="Seite-1" id="-E2PlHW6qRWu6-0ZBv54">
    <mxGraphModel dx="2433" dy="1298" grid="1" gridSize="10" guides="1" tooltips="1" connect="1" arrows="1" fold="1" page="1" pageScale="1" pageWidth="827" pageHeight="1169" math="0" shadow="0">
      <root>
        <mxCell id="0" />
        <mxCell id="1" parent="0" />
        <mxCell id="7Yme9KQCjncKX-r6_u9J-4" style="edgeStyle=orthogonalEdgeStyle;rounded=0;orthogonalLoop=1;jettySize=auto;html=1;startArrow=classic;startFill=1;endArrow=none;" edge="1" parent="1" source="7Yme9KQCjncKX-r6_u9J-1" target="7Yme9KQCjncKX-r6_u9J-2">
          <mxGeometry relative="1" as="geometry" />
        </mxCell>
        <mxCell id="7Yme9KQCjncKX-r6_u9J-8" style="edgeStyle=orthogonalEdgeStyle;rounded=0;orthogonalLoop=1;jettySize=auto;html=1;startArrow=classic;startFill=1;endArrow=none;" edge="1" parent="1" source="7Yme9KQCjncKX-r6_u9J-1" target="7Yme9KQCjncKX-r6_u9J-7">
          <mxGeometry relative="1" as="geometry" />
        </mxCell>
        <mxCell id="7Yme9KQCjncKX-r6_u9J-1" value="Container" style="rounded=0;whiteSpace=wrap;html=1;" vertex="1" parent="1">
          <mxGeometry x="360" y="120" width="120" height="60" as="geometry" />
        </mxCell>
        <mxCell id="7Yme9KQCjncKX-r6_u9J-10" style="edgeStyle=orthogonalEdgeStyle;rounded=0;orthogonalLoop=1;jettySize=auto;html=1;entryX=0.5;entryY=0;entryDx=0;entryDy=0;startArrow=classic;startFill=1;endArrow=none;" edge="1" parent="1" source="7Yme9KQCjncKX-r6_u9J-2" target="7Yme9KQCjncKX-r6_u9J-5">
          <mxGeometry relative="1" as="geometry" />
        </mxCell>
        <mxCell id="7Yme9KQCjncKX-r6_u9J-11" style="edgeStyle=orthogonalEdgeStyle;rounded=0;orthogonalLoop=1;jettySize=auto;html=1;startArrow=classic;startFill=1;endArrow=none;" edge="1" parent="1" source="7Yme9KQCjncKX-r6_u9J-2" target="7Yme9KQCjncKX-r6_u9J-9">
          <mxGeometry relative="1" as="geometry" />
        </mxCell>
        <mxCell id="7Yme9KQCjncKX-r6_u9J-2" value="Assoziativer Container&lt;br&gt;&lt;i&gt;(associative_set)&lt;/i&gt;" style="rounded=0;whiteSpace=wrap;html=1;" vertex="1" parent="1">
          <mxGeometry x="640" y="200" width="160" height="60" as="geometry" />
        </mxCell>
        <mxCell id="7Yme9KQCjncKX-r6_u9J-5" value="Geordnete Menge&lt;br&gt;&lt;i&gt;(ordered_set)&lt;/i&gt;" style="rounded=0;whiteSpace=wrap;html=1;" vertex="1" parent="1">
          <mxGeometry x="580" y="300" width="120" height="60" as="geometry" />
        </mxCell>
        <mxCell id="7Yme9KQCjncKX-r6_u9J-14" style="edgeStyle=orthogonalEdgeStyle;rounded=0;orthogonalLoop=1;jettySize=auto;html=1;entryX=0.5;entryY=0;entryDx=0;entryDy=0;startArrow=classic;startFill=1;endArrow=none;" edge="1" parent="1" source="7Yme9KQCjncKX-r6_u9J-7" target="7Yme9KQCjncKX-r6_u9J-12">
          <mxGeometry relative="1" as="geometry" />
        </mxCell>
        <mxCell id="7Yme9KQCjncKX-r6_u9J-15" style="edgeStyle=orthogonalEdgeStyle;rounded=0;orthogonalLoop=1;jettySize=auto;html=1;entryX=0.5;entryY=0;entryDx=0;entryDy=0;startArrow=classic;startFill=1;endArrow=none;" edge="1" parent="1" source="7Yme9KQCjncKX-r6_u9J-7" target="7Yme9KQCjncKX-r6_u9J-13">
          <mxGeometry relative="1" as="geometry" />
        </mxCell>
        <mxCell id="7Yme9KQCjncKX-r6_u9J-7" value="Assoziative Multi-Container&lt;br&gt;&lt;i&gt;(associative_multi_set)&lt;/i&gt;" style="rounded=0;whiteSpace=wrap;html=1;" vertex="1" parent="1">
          <mxGeometry x="960" y="200" width="160" height="60" as="geometry" />
        </mxCell>
        <mxCell id="7Yme9KQCjncKX-r6_u9J-9" value="Hashende Menge&lt;br&gt;&lt;i&gt;(hashing_set)&lt;/i&gt;" style="rounded=0;whiteSpace=wrap;html=1;" vertex="1" parent="1">
          <mxGeometry x="740" y="300" width="120" height="60" as="geometry" />
        </mxCell>
        <mxCell id="7Yme9KQCjncKX-r6_u9J-12" value="Geordnete Multi-Menge&lt;br&gt;&lt;i&gt;(ordered_multi_set)&lt;/i&gt;" style="rounded=0;whiteSpace=wrap;html=1;" vertex="1" parent="1">
          <mxGeometry x="900" y="300" width="120" height="60" as="geometry" />
        </mxCell>
        <mxCell id="7Yme9KQCjncKX-r6_u9J-13" value="Hashende Mutli-Menge&lt;br&gt;&lt;i&gt;(hashing_multi_set)&lt;/i&gt;" style="rounded=0;whiteSpace=wrap;html=1;" vertex="1" parent="1">
          <mxGeometry x="1060" y="300" width="120" height="60" as="geometry" />
        </mxCell>
      </root>
    </mxGraphModel>
  </diagram>
</mxfile>
